<svg id="Layer_1" data-name="Layer 1" xmlns="http://www.w3.org/2000/svg" xmlns:xlink="http://www.w3.org/1999/xlink" viewBox="0 0 1040 400"><defs><style>.cls-1,.cls-12,.cls-35{fill:#212b36;}.cls-1,.cls-2{clip-rule:evenodd;}.cls-10,.cls-16,.cls-2,.cls-20,.cls-23,.cls-25,.cls-28,.cls-3{fill:none;}.cls-4{fill:#0c4074;}.cls-5{fill:#fefefe;}.cls-26,.cls-6{fill:#1366ba;}.cls-7{fill:#2b6eb9;}.cls-8{fill:#234176;}.cls-9{opacity:0.2;}.cls-10{stroke:#0c4074;stroke-width:1.92px;}.cls-10,.cls-28{stroke-miterlimit:10;}.cls-11{fill:#ba7d00;}.cls-13{fill:#fcd7bb;}.cls-14{fill:#43a0ff;}.cls-15,.cls-27{fill:#fff;}.cls-16,.cls-20,.cls-23,.cls-25{stroke:#231f20;stroke-linecap:round;stroke-linejoin:round;}.cls-16{opacity:0.47;}.cls-17{fill:#a58c7a;}.cls-18{fill:#dfe3e8;}.cls-19{fill:#805b41;}.cls-20{opacity:0.61;}.cls-21{fill:#bfada0;}.cls-22{fill:#d8cdc6;opacity:0.76;}.cls-23{opacity:0.23;}.cls-24{fill:#1a8cff;}.cls-25{stroke-width:2px;}.cls-26{opacity:0.26;}.cls-27{opacity:0.14;}.cls-28{stroke:#1366ba;stroke-width:4px;}.cls-29{fill:#ffc95c;}.cls-30{fill:#ffab00;}.cls-31{fill:#6db5ff;}.cls-32{fill:#ec5632;}.cls-33{fill:#919eab;}.cls-34{fill:#f4f6f8;}.cls-35{fill-rule:evenodd;}.cls-36{clip-path:url(#clip-path);}.cls-37{clip-path:url(#clip-path-2);}.cls-38{clip-path:url(#clip-path-3);}.cls-39{fill:#ffba2e;}.cls-40{clip-path:url(#clip-path-4);}.cls-41{clip-path:url(#clip-path-5);}.cls-42{clip-path:url(#clip-path-6);}.cls-43{clip-path:url(#clip-path-7);}.cls-44{clip-path:url(#clip-path-8);}.cls-45{clip-path:url(#clip-path-9);}.cls-46{clip-path:url(#clip-path-10);}.cls-47{fill:#454f5b;}.cls-48{clip-path:url(#clip-path-11);}</style><clipPath id="clip-path"><path class="cls-1" d="M440,53a4.72,4.72,0,0,1-.16-1.63,11.87,11.87,0,0,1,.62-3,2.77,2.77,0,1,0-5.21-1.91.32.32,0,0,0,0,.09h0v0a10.34,10.34,0,0,1-1.64,2.84,6.25,6.25,0,0,1-1,.91,4.81,4.81,0,1,0,7.31,5.56A4.89,4.89,0,0,0,440,53"/></clipPath><clipPath id="clip-path-2"><path class="cls-2" d="M439,52.71a4.29,4.29,0,0,1-.06-1.34,11.51,11.51,0,0,1,.57-2.5,2,2,0,1,0-3.81-1.39.19.19,0,0,1,0,.07h0v0A9.65,9.65,0,0,1,434.37,50a4.86,4.86,0,0,1-.78.79,4.47,4.47,0,0,0-1.39,2,3.54,3.54,0,1,0,6.62,2.32,4.43,4.43,0,0,0,.2-2.4"/></clipPath><clipPath id="clip-path-3"><polygon class="cls-2" points="437.39 48.7 437.39 48.7 435.73 48.89 436.71 50.56 436.71 50.55 438.54 49.91 437.39 48.7"/></clipPath><clipPath id="clip-path-4"><path class="cls-2" d="M433.78,49.23a4.81,4.81,0,0,1-1.38.94,5.12,5.12,0,0,0-2.27,1.95c-1.42,2.32,1.45,4.93,2.33,4.3,1.62-1.16-.86-2.85.42-4.88a7.43,7.43,0,0,0,.9-2.31"/></clipPath><clipPath id="clip-path-5"><path class="cls-2" d="M439.89,51.07a4.84,4.84,0,0,0,.46,1.6,5.23,5.23,0,0,1,.47,3c-.42,2.68-4.3,2.82-4.56,1.78-.49-1.94,2.5-1.62,2.83-4a7.37,7.37,0,0,1,.8-2.34"/></clipPath><clipPath id="clip-path-6"><path class="cls-2" d="M435,59.6a.94.94,0,0,1-.41-1.23,1.85,1.85,0,0,1,.21-.34,22.33,22.33,0,0,1,3-2,.34.34,0,0,1,.52.31l0,.31a.62.62,0,0,0,.45.65l.25.07a.34.34,0,0,1,.2.52l-.36.52a.63.63,0,0,0,0,.65l.2.37a.34.34,0,0,1-.31.5c-1,0-3.09-.15-3.42-.22a.88.88,0,0,1-.26-.09"/></clipPath><clipPath id="clip-path-7"><path class="cls-2" d="M432,58.49a1,1,0,0,0,1.11-.68,1.5,1.5,0,0,0,.05-.4,22.25,22.25,0,0,0-1-3.46.34.34,0,0,0-.6-.1l-.18.26a.62.62,0,0,1-.77.19l-.23-.11a.34.34,0,0,0-.49.28l-.06.62a.64.64,0,0,1-.4.52l-.39.15a.34.34,0,0,0-.09.59c.83.63,2.45,1.88,2.75,2a1.72,1.72,0,0,0,.26.1"/></clipPath><clipPath id="clip-path-8"><circle class="cls-3" cx="257.06" cy="252.08" r="7.64"/></clipPath><clipPath id="clip-path-9"><circle class="cls-3" cx="257.06" cy="252.08" r="5.7"/></clipPath><clipPath id="clip-path-10"><path class="cls-2" d="M255.85,250.5v-2.16a.45.45,0,0,1,.44-.45h1.5a.46.46,0,0,1,.46.45l0,3.95a.24.24,0,0,1-.07.16l-.37.38a.22.22,0,0,0,0,.32l.38.37a.24.24,0,0,1,.07.16v2.15a.45.45,0,0,1-.45.45h-1.5a.45.45,0,0,1-.45-.44l0-4a.23.23,0,0,1,.06-.16l.37-.37a.22.22,0,0,0,0-.32l-.37-.38A.18.18,0,0,1,255.85,250.5Z"/></clipPath><clipPath id="clip-path-11"><path class="cls-2" d="M257,244.44a7.65,7.65,0,1,0,7.69,7.6A7.64,7.64,0,0,0,257,244.44Zm0-1.95a9.59,9.59,0,1,1-9.54,9.64A9.59,9.59,0,0,1,257,242.49Z"/></clipPath></defs><g id="WfKs89.tif"><path class="cls-4" d="M643.2,244.63a10.15,10.15,0,0,1-.21,2,10.58,10.58,0,0,1-.68,2.2,11.56,11.56,0,0,1-1.39,2.44,13.41,13.41,0,0,1-1.17,1.33,12.52,12.52,0,0,1-1,.9,11.24,11.24,0,0,1-2.54,1.46,11.06,11.06,0,0,1-1.95.62,11.17,11.17,0,0,1-5.39-.1c-.87-.23-1.71-.56-2.56-.84l-4.38-1.5c-.81-.28-1.62-.54-2.41-.84a2.5,2.5,0,0,1-1.43-1.52,2.87,2.87,0,0,1,.08-2c.51-1.46,1-2.93,1.51-4.4l1.05-3a15.34,15.34,0,0,1,1-2.34,11.88,11.88,0,0,1,1.47-2.13,11.5,11.5,0,0,1,1.74-1.61,10.85,10.85,0,0,1,2.68-1.49,11.39,11.39,0,0,1,1.6-.5,11,11,0,0,1,3.19-.29,11.24,11.24,0,0,1,3.56.77,11.38,11.38,0,0,1,2.27,1.18,10.92,10.92,0,0,1,1.54,1.25,9.67,9.67,0,0,1,1,1.06,11.3,11.3,0,0,1,1.29,2,11.75,11.75,0,0,1,.81,2.06,13.17,13.17,0,0,1,.37,1.85A11,11,0,0,1,643.2,244.63Zm-20.54,7.3c0,.06,0,.06.08.06s.35.22.53.31a5.35,5.35,0,0,0,4.53,0,5.18,5.18,0,0,0,1.22-.76,5.46,5.46,0,0,0,.93-1,6.17,6.17,0,0,0,.87-1.81c.22-.67.46-1.34.69-2,0-.09,0-.24.11-.26s.18.06.28.09l2,.68.18.07a5.08,5.08,0,0,0,2.47.32,5.35,5.35,0,0,0,2.08-.67,5.52,5.52,0,0,0,1.57-1.35,5,5,0,0,0,.84-1.51,5.86,5.86,0,0,0,.3-1.44,5.14,5.14,0,0,0,0-1.24,4.69,4.69,0,0,0-.33-1.13,6,6,0,0,0-.74-1.3,4.79,4.79,0,0,0-1-1c-.05,0-.09-.13-.19-.1h0c0-.08,0-.07-.08-.07l-.31-.19a5,5,0,0,0-2.32-.69,5.28,5.28,0,0,0-3.21.86,5.38,5.38,0,0,0-1.06.9,5.76,5.76,0,0,0-.84,1.24,12.48,12.48,0,0,0-.59,1.58c-.2.54-.38,1.09-.56,1.64,0,.1-.07.09-.14.07l-.64-.23c-.54-.17-1.08-.38-1.63-.54a6.08,6.08,0,0,0-.72-.24,5.4,5.4,0,0,0-2-.13,4.83,4.83,0,0,0-1.37.34,5.45,5.45,0,0,0-2.08,1.5,5.38,5.38,0,0,0-1.25,4.12,5.4,5.4,0,0,0,2,3.57c.1.07.19.2.34.2h0c0,.07,0,.07.07.07Z"/><path class="cls-5" d="M627.64,242.5c.55.16,1.09.37,1.63.54l.64.23c.07,0,.11,0,.14-.07.18-.55.36-1.1.56-1.64a12.48,12.48,0,0,1,.59-1.58,5.76,5.76,0,0,1,.84-1.24,5.38,5.38,0,0,1,1.06-.9,5.28,5.28,0,0,1,3.21-.86,5,5,0,0,1,2.32.69l.31.19a.14.14,0,0,0,.08.07h0l.15.16a1.26,1.26,0,0,1,.29,1.28,1.13,1.13,0,0,1-1.1.77,2.7,2.7,0,0,1-.63-.12h0l0,0h0s0,0-.06,0l-.12-.07a3.53,3.53,0,0,0-1.38-.39,2.9,2.9,0,0,0-2.54,1.36,5.34,5.34,0,0,0-.46,1.14c-.2.57-.39,1.15-.59,1.71a.43.43,0,0,0,.21.53l2,.68s0,0,0,0a1.21,1.21,0,0,1,.65,1,1.26,1.26,0,0,1-.87,1.23,1.69,1.69,0,0,1-.59,0l-2-.68c-.1,0-.21-.11-.28-.09s-.08.17-.11.26c-.23.67-.47,1.34-.69,2a6.17,6.17,0,0,1-.87,1.81,5.46,5.46,0,0,1-.93,1,5.18,5.18,0,0,1-1.22.76,5.35,5.35,0,0,1-4.53,0c-.18-.09-.35-.21-.53-.31a.08.08,0,0,0-.08-.06h0s0-.07-.07-.07h0l-.13-.15a1.24,1.24,0,0,1-.24-1.41,1.16,1.16,0,0,1,1.18-.63,2.38,2.38,0,0,1,.58.16l.11.06a3,3,0,0,0,2.11.33,2.71,2.71,0,0,0,2-1.65c.34-.82.59-1.68.87-2.52a.38.38,0,0,0-.26-.51l-1.93-.67a1.37,1.37,0,0,1-.65-.89,1.29,1.29,0,0,1,.57-1.29A1.48,1.48,0,0,1,627.64,242.5Z"/><path class="cls-6" d="M627.64,242.5a1.48,1.48,0,0,0-.84.19,1.29,1.29,0,0,0-.57,1.29,1.37,1.37,0,0,0,.65.89,4.88,4.88,0,0,1-.65-.2,2.8,2.8,0,0,0-1.32,0,2.84,2.84,0,0,0-2,3.73,2.8,2.8,0,0,0,.5.89,5.48,5.48,0,0,0,.56.52,2.38,2.38,0,0,0-.58-.16,1.16,1.16,0,0,0-1.18.63,1.24,1.24,0,0,0,.24,1.41l.13.15c-.15,0-.24-.13-.34-.2a5.4,5.4,0,0,1-2-3.57,5.38,5.38,0,0,1,1.25-4.12,5.45,5.45,0,0,1,2.08-1.5,4.83,4.83,0,0,1,1.37-.34,5.4,5.4,0,0,1,2,.13A6.08,6.08,0,0,1,627.64,242.5Z"/><path class="cls-6" d="M637.73,240a2.7,2.7,0,0,0,.63.12,1.13,1.13,0,0,0,1.1-.77,1.26,1.26,0,0,0-.29-1.28l-.15-.16c.1,0,.14.06.19.1a4.79,4.79,0,0,1,1,1,6,6,0,0,1,.74,1.3,4.69,4.69,0,0,1,.33,1.13,5.14,5.14,0,0,1,0,1.24,5.86,5.86,0,0,1-.3,1.44,5,5,0,0,1-.84,1.51,5.52,5.52,0,0,1-1.57,1.35,5.35,5.35,0,0,1-2.08.67,5.08,5.08,0,0,1-2.47-.32l-.18-.07a1.69,1.69,0,0,0,.59,0,1.26,1.26,0,0,0,.87-1.23,1.21,1.21,0,0,0-.65-1s0,0,0,0l.16,0a4.91,4.91,0,0,0,.75.21,3,3,0,0,0,1.23-.11,2.86,2.86,0,0,0,1.72-1.46,2.86,2.86,0,0,0,.23-1.86,2.73,2.73,0,0,0-.81-1.46C637.92,240.2,637.79,240.14,637.73,240Z"/><path class="cls-7" d="M639,237.93a.14.14,0,0,1-.08-.07S639.05,237.85,639,237.93Z"/><path class="cls-7" d="M622.59,251.86s0,0,.07.07S622.56,251.93,622.59,251.86Z"/><path class="cls-7" d="M622.66,251.93a.08.08,0,0,1,.08.06S622.66,252,622.66,251.93Z"/><path class="cls-8" d="M637.73,240c.06.12.19.18.28.27a2.73,2.73,0,0,1,.81,1.46,2.86,2.86,0,0,1-.23,1.86,2.86,2.86,0,0,1-1.72,1.46,3,3,0,0,1-1.23.11,4.91,4.91,0,0,1-.75-.21l-.16,0-2-.68a.43.43,0,0,1-.21-.53c.2-.56.39-1.14.59-1.71a5.34,5.34,0,0,1,.46-1.14,2.9,2.9,0,0,1,2.54-1.36,3.53,3.53,0,0,1,1.38.39l.12.07s0,0,.06,0h0l0,0Z"/><path class="cls-8" d="M624,249.83a5.48,5.48,0,0,1-.56-.52,2.8,2.8,0,0,1-.5-.89,2.84,2.84,0,0,1,2-3.73,2.8,2.8,0,0,1,1.32,0,4.88,4.88,0,0,0,.65.2l1.93.67a.38.38,0,0,1,.26.51c-.28.84-.53,1.7-.87,2.52a2.71,2.71,0,0,1-2,1.65,3,3,0,0,1-2.11-.33Z"/><path class="cls-7" d="M637.7,240s-.05,0-.06,0S637.69,240,637.7,240Z"/><path class="cls-7" d="M637.73,240l0,0Z"/></g><polyline class="cls-6" points="0 -6.36 1040 -6.36 1040 400 0 400"/><g class="cls-9"><polygon class="cls-10" points="54.42 390.67 111.97 390.98 111.97 370.91 54.42 370.91 54.42 390.67"/><polygon class="cls-10" points="54.42 350.53 111.97 350.84 111.97 330.77 54.42 330.77 54.42 350.53"/><polygon class="cls-10" points="54.42 310.4 111.97 310.7 111.97 290.64 54.42 290.64 54.42 310.4"/><polygon class="cls-10" points="54.91 270.26 112.46 270.57 112.46 250.5 54.91 250.5 54.91 270.26"/><polygon class="cls-10" points="25.81 410.73 83.36 411.04 83.36 390.98 25.81 390.98 25.81 410.73"/><polygon class="cls-10" points="83.36 410.73 140.91 411.04 140.91 390.98 83.36 390.98 83.36 410.73"/><polygon class="cls-10" points="25.81 370.6 83.36 370.91 83.36 350.84 25.81 350.84 25.81 370.6"/><polygon class="cls-10" points="83.36 370.6 140.91 370.91 140.91 350.84 83.36 350.84 83.36 370.6"/><polygon class="cls-10" points="25.81 330.46 83.36 330.77 83.36 310.7 25.81 310.7 25.81 330.46"/><polygon class="cls-10" points="83.36 330.46 140.91 330.77 140.91 310.7 83.36 310.7 83.36 330.46"/><polygon class="cls-10" points="25.81 290.33 83.36 290.64 83.36 270.57 25.81 270.57 25.81 290.33"/><polygon class="cls-10" points="83.36 290.33 140.91 290.64 140.91 270.57 83.36 270.57 83.36 290.33"/><polygon class="cls-10" points="25.81 250.19 83.36 250.5 83.36 230.44 25.81 230.44 25.81 250.19"/><polygon class="cls-10" points="0.64 390.98 54.85 391.29 54.85 371.22 0.64 371.22 0.64 390.98"/><polyline class="cls-10" points="0.64 350.84 54.85 351.15 54.85 331.08 0.64 331.08"/><polyline class="cls-10" points="0.64 310.71 54.85 311.02 54.85 290.95 0.64 290.95"/><polyline class="cls-10" points="0.64 270.57 54.85 270.88 54.85 250.81 0.64 250.81"/><polygon class="cls-10" points="0.4 410.98 25.5 411.29 25.5 391.22 0.4 391.22 0.4 410.98"/><polyline class="cls-10" points="0.4 370.85 25.5 371.15 25.5 351.09 0.4 351.09"/><polyline class="cls-10" points="0.4 330.71 25.5 331.02 25.5 310.95 0.4 310.95"/><polyline class="cls-10" points="0.4 290.58 25.5 290.88 25.5 270.82 0.4 270.82"/><polygon class="cls-10" points="786.52 390.26 842.73 390.57 842.73 370.5 786.52 370.5 786.52 390.26"/><polygon class="cls-10" points="842.73 390.26 898.93 390.57 898.93 370.5 842.73 370.5 842.73 390.26"/><polygon class="cls-10" points="898.93 390.26 955.13 390.57 955.13 370.5 898.93 370.5 898.93 390.26"/><polygon class="cls-10" points="955.13 390.26 1011.34 390.57 1011.34 370.5 955.13 370.5 955.13 390.26"/><polygon class="cls-10" points="786.52 350.13 842.73 350.44 842.73 330.37 786.52 330.37 786.52 350.13"/><polygon class="cls-10" points="842.73 350.13 898.93 350.44 898.93 330.37 842.73 330.37 842.73 350.13"/><polygon class="cls-10" points="898.93 350.13 955.13 350.44 955.13 330.37 898.93 330.37 898.93 350.13"/><polygon class="cls-10" points="955.13 350.13 1011.34 350.44 1011.34 330.37 955.13 330.37 955.13 350.13"/><polygon class="cls-10" points="786.52 309.99 842.73 310.3 842.73 290.24 786.52 290.24 786.52 309.99"/><polygon class="cls-10" points="842.73 309.99 898.93 310.3 898.93 290.24 842.73 290.24 842.73 309.99"/><polygon class="cls-10" points="898.93 309.99 955.13 310.3 955.13 290.24 898.93 290.24 898.93 309.99"/><polygon class="cls-10" points="955.13 309.99 1011.34 310.3 1011.34 290.24 955.13 290.24 955.13 309.99"/><polygon class="cls-10" points="787 269.86 843.21 270.17 843.21 250.1 787 250.1 787 269.86"/><polygon class="cls-10" points="843.21 269.86 899.41 270.17 899.41 250.1 843.21 250.1 843.21 269.86"/><polygon class="cls-10" points="899.41 269.86 955.61 270.17 955.61 250.1 899.41 250.1 899.41 269.86"/><polygon class="cls-10" points="955.61 269.86 1011.82 270.17 1011.82 250.1 955.61 250.1 955.61 269.86"/><polygon class="cls-10" points="814.79 410.33 870.99 410.64 870.99 390.57 814.79 390.57 814.79 410.33"/><polygon class="cls-10" points="870.99 410.33 927.19 410.64 927.19 390.57 870.99 390.57 870.99 410.33"/><polygon class="cls-10" points="927.19 410.33 983.39 410.64 983.39 390.57 927.19 390.57 927.19 410.33"/><polygon class="cls-10" points="983.39 410.33 1039.6 410.64 1039.6 390.57 983.39 390.57 983.39 410.33"/><polygon class="cls-10" points="814.79 370.2 870.99 370.5 870.99 350.44 814.79 350.44 814.79 370.2"/><polygon class="cls-10" points="870.99 370.2 927.19 370.5 927.19 350.44 870.99 350.44 870.99 370.2"/><polygon class="cls-10" points="927.19 370.2 983.39 370.5 983.39 350.44 927.19 350.44 927.19 370.2"/><polyline class="cls-10" points="1039.6 350.44 983.39 350.44 983.39 370.2 1039.6 370.5"/><polygon class="cls-10" points="814.79 330.06 870.99 330.37 870.99 310.3 814.79 310.3 814.79 330.06"/><polygon class="cls-10" points="870.99 330.06 927.19 330.37 927.19 310.3 870.99 310.3 870.99 330.06"/><polygon class="cls-10" points="927.19 330.06 983.39 330.37 983.39 310.3 927.19 310.3 927.19 330.06"/><polyline class="cls-10" points="1039.6 310.3 983.39 310.3 983.39 330.06 1039.6 330.37"/><polygon class="cls-10" points="814.79 289.93 870.99 290.24 870.99 270.17 814.79 270.17 814.79 289.93"/><polygon class="cls-10" points="870.99 289.93 927.19 290.24 927.19 270.17 870.99 270.17 870.99 289.93"/><polygon class="cls-10" points="927.19 289.93 983.39 290.24 983.39 270.17 927.19 270.17 927.19 289.93"/><polygon class="cls-10" points="814.79 249.79 870.99 250.1 870.99 230.03 814.79 230.03 814.79 249.79"/><polygon class="cls-10" points="870.99 249.79 927.19 250.1 927.19 230.03 870.99 230.03 870.99 249.79"/><polygon class="cls-10" points="561.23 390.26 617.44 390.57 617.44 370.5 561.23 370.5 561.23 390.26"/><polygon class="cls-10" points="617.44 390.26 673.64 390.57 673.64 370.5 617.44 370.5 617.44 390.26"/><polygon class="cls-10" points="673.64 390.26 729.84 390.57 729.84 370.5 673.64 370.5 673.64 390.26"/><polygon class="cls-10" points="729.84 390.26 786.04 390.57 786.04 370.5 729.84 370.5 729.84 390.26"/><polygon class="cls-10" points="561.23 350.13 617.44 350.44 617.44 330.37 561.23 330.37 561.23 350.13"/><polygon class="cls-10" points="617.44 350.13 673.64 350.44 673.64 330.37 617.44 330.37 617.44 350.13"/><polygon class="cls-10" points="673.64 350.13 729.84 350.44 729.84 330.37 673.64 330.37 673.64 350.13"/><polygon class="cls-10" points="729.84 350.13 786.04 350.44 786.04 330.37 729.84 330.37 729.84 350.13"/><polygon class="cls-10" points="561.23 309.99 617.44 310.3 617.44 290.24 561.23 290.24 561.23 309.99"/><polygon class="cls-10" points="617.44 309.99 673.64 310.3 673.64 290.24 617.44 290.24 617.44 309.99"/><polygon class="cls-10" points="673.64 309.99 729.84 310.3 729.84 290.24 673.64 290.24 673.64 309.99"/><polygon class="cls-10" points="729.84 309.99 786.04 310.3 786.04 290.24 729.84 290.24 729.84 309.99"/><polygon class="cls-10" points="561.71 269.86 617.92 270.17 617.92 250.1 561.71 250.1 561.71 269.86"/><polygon class="cls-10" points="674.12 269.86 730.32 270.17 730.32 250.1 674.12 250.1 674.12 269.86"/><polygon class="cls-10" points="730.32 269.86 786.52 270.17 786.52 250.1 730.32 250.1 730.32 269.86"/><polygon class="cls-10" points="589.5 410.33 645.7 410.64 645.7 390.57 589.5 390.57 589.5 410.33"/><polygon class="cls-10" points="645.7 410.33 701.9 410.64 701.9 390.57 645.7 390.57 645.7 410.33"/><polygon class="cls-10" points="701.9 410.33 758.1 410.64 758.1 390.57 701.9 390.57 701.9 410.33"/><polygon class="cls-10" points="758.1 410.33 814.31 410.64 814.31 390.57 758.1 390.57 758.1 410.33"/><polygon class="cls-10" points="589.5 370.19 645.7 370.5 645.7 350.44 589.5 350.44 589.5 370.19"/><polygon class="cls-10" points="645.7 370.19 701.9 370.5 701.9 350.44 645.7 350.44 645.7 370.19"/><polygon class="cls-10" points="701.9 370.19 758.1 370.5 758.1 350.44 701.9 350.44 701.9 370.19"/><polygon class="cls-10" points="758.1 370.19 814.31 370.5 814.31 350.44 758.1 350.44 758.1 370.19"/><polygon class="cls-10" points="589.5 330.06 645.7 330.37 645.7 310.3 589.5 310.3 589.5 330.06"/><polygon class="cls-10" points="645.7 330.06 701.9 330.37 701.9 310.3 645.7 310.3 645.7 330.06"/><polygon class="cls-10" points="701.9 330.06 758.1 330.37 758.1 310.3 701.9 310.3 701.9 330.06"/><polygon class="cls-10" points="758.1 330.06 814.31 330.37 814.31 310.3 758.1 310.3 758.1 330.06"/><polygon class="cls-10" points="589.5 289.93 645.7 290.24 645.7 270.17 589.5 270.17 589.5 289.93"/><polygon class="cls-10" points="645.7 289.93 701.9 290.24 701.9 270.17 645.7 270.17 645.7 289.93"/><polygon class="cls-10" points="758.1 289.93 814.31 290.24 814.31 270.17 758.1 270.17 758.1 289.93"/><polygon class="cls-10" points="589.5 249.79 645.7 250.1 645.7 230.03 589.5 230.03 589.5 249.79"/><polygon class="cls-10" points="701.9 249.79 758.1 250.1 758.1 230.03 701.9 230.03 701.9 249.79"/><polygon class="cls-10" points="758.1 249.79 814.31 250.1 814.31 230.03 758.1 230.03 758.1 249.79"/><polygon class="cls-10" points="336.71 390.46 392.92 390.77 392.92 370.7 336.71 370.7 336.71 390.46"/><polygon class="cls-10" points="392.92 390.46 449.12 390.77 449.12 370.7 392.92 370.7 392.92 390.46"/><polygon class="cls-10" points="449.12 390.46 505.32 390.77 505.32 370.7 449.12 370.7 449.12 390.46"/><polygon class="cls-10" points="505.32 390.46 561.52 390.77 561.52 370.7 505.32 370.7 505.32 390.46"/><polygon class="cls-10" points="336.71 350.33 392.92 350.64 392.92 330.57 336.71 330.57 336.71 350.33"/><polygon class="cls-10" points="392.92 350.33 449.12 350.64 449.12 330.57 392.92 330.57 392.92 350.33"/><polygon class="cls-10" points="449.12 350.33 505.32 350.64 505.32 330.57 449.12 330.57 449.12 350.33"/><polygon class="cls-10" points="505.32 350.33 561.52 350.64 561.52 330.57 505.32 330.57 505.32 350.33"/><polygon class="cls-10" points="336.71 310.19 392.92 310.5 392.92 290.44 336.71 290.44 336.71 310.19"/><polygon class="cls-10" points="392.92 310.19 449.12 310.5 449.12 290.44 392.92 290.44 392.92 310.19"/><polygon class="cls-10" points="449.12 310.19 505.32 310.5 505.32 290.44 449.12 290.44 449.12 310.19"/><polygon class="cls-10" points="505.32 310.19 561.52 310.5 561.52 290.44 505.32 290.44 505.32 310.19"/><polygon class="cls-10" points="337.19 270.06 393.4 270.37 393.4 250.3 337.19 250.3 337.19 270.06"/><polygon class="cls-10" points="393.4 270.06 449.6 270.37 449.6 250.3 393.4 250.3 393.4 270.06"/><polygon class="cls-10" points="449.6 270.06 505.81 270.37 505.81 250.3 449.6 250.3 449.6 270.06"/><polygon class="cls-10" points="505.8 270.06 562.01 270.37 562.01 250.3 505.8 250.3 505.8 270.06"/><polygon class="cls-10" points="364.98 410.53 421.18 410.84 421.18 390.77 364.98 390.77 364.98 410.53"/><polygon class="cls-10" points="421.18 410.53 477.38 410.84 477.38 390.77 421.18 390.77 421.18 410.53"/><polygon class="cls-10" points="477.38 410.53 533.59 410.84 533.59 390.77 477.38 390.77 477.38 410.53"/><polygon class="cls-10" points="533.59 410.53 589.79 410.84 589.79 390.77 533.59 390.77 533.59 410.53"/><polygon class="cls-10" points="364.98 370.4 421.18 370.7 421.18 350.64 364.98 350.64 364.98 370.4"/><polygon class="cls-10" points="421.18 370.4 477.38 370.7 477.38 350.64 421.18 350.64 421.18 370.4"/><polygon class="cls-10" points="477.38 370.4 533.59 370.7 533.59 350.64 477.38 350.64 477.38 370.4"/><polygon class="cls-10" points="533.59 370.4 589.79 370.7 589.79 350.64 533.59 350.64 533.59 370.4"/><polygon class="cls-10" points="364.98 330.26 421.18 330.57 421.18 310.5 364.98 310.5 364.98 330.26"/><polygon class="cls-10" points="421.18 330.26 477.38 330.57 477.38 310.5 421.18 310.5 421.18 330.26"/><polygon class="cls-10" points="477.38 330.26 533.59 330.57 533.59 310.5 477.38 310.5 477.38 330.26"/><polygon class="cls-10" points="533.59 330.26 589.79 330.57 589.79 310.5 533.59 310.5 533.59 330.26"/><polygon class="cls-10" points="364.98 290.13 421.18 290.44 421.18 270.37 364.98 270.37 364.98 290.13"/><polygon class="cls-10" points="421.18 290.13 477.38 290.44 477.38 270.37 421.18 270.37 421.18 290.13"/><polygon class="cls-10" points="477.38 290.13 533.59 290.44 533.59 270.37 477.38 270.37 477.38 290.13"/><polygon class="cls-10" points="533.59 290.13 589.79 290.44 589.79 270.37 533.59 270.37 533.59 290.13"/><polygon class="cls-10" points="364.98 249.99 421.18 250.3 421.18 230.23 364.98 230.23 364.98 249.99"/><polygon class="cls-10" points="421.18 249.99 477.38 250.3 477.38 230.23 421.18 230.23 421.18 249.99"/><polygon class="cls-10" points="477.38 249.99 533.59 250.3 533.59 230.23 477.38 230.23 477.38 249.99"/><polygon class="cls-10" points="533.59 249.99 589.79 250.3 589.79 230.23 533.59 230.23 533.59 249.99"/><polygon class="cls-10" points="112.58 390.26 168.78 390.57 168.78 370.5 112.58 370.5 112.58 390.26"/><polygon class="cls-10" points="168.78 390.26 224.99 390.57 224.99 370.5 168.78 370.5 168.78 390.26"/><polygon class="cls-10" points="224.99 390.26 281.19 390.57 281.19 370.5 224.99 370.5 224.99 390.26"/><polygon class="cls-10" points="281.19 390.26 337.39 390.57 337.39 370.5 281.19 370.5 281.19 390.26"/><polygon class="cls-10" points="112.58 350.13 168.78 350.44 168.78 330.37 112.58 330.37 112.58 350.13"/><polygon class="cls-10" points="168.78 350.13 224.99 350.44 224.99 330.37 168.78 330.37 168.78 350.13"/><polygon class="cls-10" points="224.99 350.13 281.19 350.44 281.19 330.37 224.99 330.37 224.99 350.13"/><polygon class="cls-10" points="281.19 350.13 337.39 350.44 337.39 330.37 281.19 330.37 281.19 350.13"/><polygon class="cls-10" points="112.58 309.99 168.78 310.3 168.78 290.23 112.58 290.23 112.58 309.99"/><polygon class="cls-10" points="168.78 309.99 224.99 310.3 224.99 290.23 168.78 290.23 168.78 309.99"/><polygon class="cls-10" points="224.99 309.99 281.19 310.3 281.19 290.23 224.99 290.23 224.99 309.99"/><polygon class="cls-10" points="281.19 309.99 337.39 310.3 337.39 290.23 281.19 290.23 281.19 309.99"/><polygon class="cls-10" points="169.26 269.86 225.47 270.17 225.47 250.1 169.26 250.1 169.26 269.86"/><polygon class="cls-10" points="225.47 269.86 281.67 270.17 281.67 250.1 225.47 250.1 225.47 269.86"/><polygon class="cls-10" points="281.67 269.86 337.87 270.17 337.87 250.1 281.67 250.1 281.67 269.86"/><polygon class="cls-10" points="140.84 410.33 197.05 410.64 197.05 390.57 140.84 390.57 140.84 410.33"/><polygon class="cls-10" points="197.05 410.33 253.25 410.64 253.25 390.57 197.05 390.57 197.05 410.33"/><polygon class="cls-10" points="253.25 410.33 309.45 410.64 309.45 390.57 253.25 390.57 253.25 410.33"/><polygon class="cls-10" points="309.45 410.33 365.66 410.64 365.66 390.57 309.45 390.57 309.45 410.33"/><polygon class="cls-10" points="140.84 370.19 197.05 370.5 197.05 350.44 140.84 350.44 140.84 370.19"/><polygon class="cls-10" points="197.05 370.19 253.25 370.5 253.25 350.44 197.05 350.44 197.05 370.19"/><polygon class="cls-10" points="253.25 370.19 309.45 370.5 309.45 350.44 253.25 350.44 253.25 370.19"/><polygon class="cls-10" points="309.45 370.19 365.66 370.5 365.66 350.44 309.45 350.44 309.45 370.19"/><polygon class="cls-10" points="140.84 330.06 197.05 330.37 197.05 310.3 140.84 310.3 140.84 330.06"/><polygon class="cls-10" points="197.05 330.06 253.25 330.37 253.25 310.3 197.05 310.3 197.05 330.06"/><polygon class="cls-10" points="253.25 330.06 309.45 330.37 309.45 310.3 253.25 310.3 253.25 330.06"/><polygon class="cls-10" points="309.45 330.06 365.66 330.37 365.66 310.3 309.45 310.3 309.45 330.06"/><polygon class="cls-10" points="140.84 289.93 197.05 290.23 197.05 270.17 140.84 270.17 140.84 289.93"/><polygon class="cls-10" points="197.05 289.93 253.25 290.23 253.25 270.17 197.05 270.17 197.05 289.93"/><polygon class="cls-10" points="253.25 289.93 309.45 290.23 309.45 270.17 253.25 270.17 253.25 289.93"/><polygon class="cls-10" points="309.45 289.93 365.66 290.23 365.66 270.17 309.45 270.17 309.45 289.93"/><polygon class="cls-10" points="140.84 249.79 197.05 250.1 197.05 230.03 140.84 230.03 140.84 249.79"/><polygon class="cls-10" points="253.25 249.79 309.45 250.1 309.45 230.03 253.25 230.03 253.25 249.79"/><polygon class="cls-10" points="309.45 249.79 365.66 250.1 365.66 230.03 309.45 230.03 309.45 249.79"/><polyline class="cls-10" points="1038.93 310.93 1010.67 310.93 1010.67 290.87 1038.93 290.87"/><polyline class="cls-10" points="1039.6 350.64 1011.34 350.64 1011.34 330.57 1039.6 330.57"/><rect class="cls-10" x="1010.89" y="370.51" width="28.26" height="20.07"/></g><rect class="cls-4" y="369.58" width="1040" height="36.44"/><path class="cls-11" d="M259.86,346.58H271a3.94,3.94,0,0,1,3.94,3.94v3.06a0,0,0,0,1,0,0h-19a0,0,0,0,1,0,0v-3.06A3.94,3.94,0,0,1,259.86,346.58Z"/><ellipse class="cls-12" cx="415.62" cy="170.1" rx="26.78" ry="5" transform="translate(138.6 523.56) rotate(-74.17)"/><path class="cls-13" d="M421.59,85.52s-5.44-12.24-5.14-13.88,1.41-6.7,1-8.34-2.38-3.57-4.09.67S400.22,83,400.45,83.1s-.08,2.38,4.46,5,7.3,10,7.3,10S421.59,92.71,421.59,85.52Z"/><path class="cls-4" d="M466.15,142.42s-30.26-19.48-31.73-22.51-11.83-35.84-11.83-35.84-6.82,11-14.22,9.56c0,0,3.62,28.91,9.09,39.81s34,28.37,34,28.37Z"/><path class="cls-4" d="M459.67,144.11s18.35,8.3,25.52,6.5c0,0,10.22,10.63,0,29.14S449,212,449,212l-26.42-10.61S431.28,154.77,459.67,144.11Z"/><path class="cls-14" d="M479.25,167.22c4-3.06,4.51-8.08,17.87-9.26,0,0,7.86,10.27,22.85,5.53,0,0,1.19-.37,3.68,6.61,3.22,9-1.83,14.48-7.57,27.17-7.17,15.86-11.37,37.66-11.37,37.66s-71.83-29.63-70.25-30.62S469.4,174.73,479.25,167.22Z"/><path class="cls-15" d="M464.15,111.49l-1,1.89a1,1,0,0,0,.52,1.47L471.1,118l.12-3.74Z"/><path class="cls-13" d="M490.06,80.08c-.52,0-15.38,8.31-17.64,13.56s.39,5.72-4,7.74a16.57,16.57,0,0,0-6.45,5l2,2.31-1.9,2.93,6.56,3.52s-3.91,2.79-7.84,2.53c0,0-4.7,6.43,5.74,9.22s7.41,2.35,7.41,2.35.39,10.86-9.79,13.85c-1.76.52-3.77,5.49,6.67,7.48,5.6,1.07,13.53,2,13.53,2l7.81-17.71s21.52,1,25-20.4S511.46,79.69,490.06,80.08Z"/><path class="cls-12" d="M481.94,82.69s-7.7,2-7,12.62,6.12,14.86,6.12,14.86Z"/><path class="cls-16" d="M472.32,98.62s4.34,0,4.46,2"/><circle class="cls-12" cx="473.1" cy="102.48" r="1.46"/><rect class="cls-17" x="470.38" y="81.92" width="57.46" height="64.52" transform="translate(83.23 -184.46) rotate(22.8)"/><path class="cls-18" d="M488.07,133.44l-.43,2.11a1.05,1.05,0,0,0,.93,1.25l8.07.73-1-3.61Z"/><path class="cls-19" d="M503.38,95.71c-.49.17-12.19,12.54-12.77,18.22s2.09,5.34-1.51,8.59a16.6,16.6,0,0,0-4.64,6.73l2.55,1.63-.92,3.36,7.31,1.4s-2.9,3.83-6.73,4.75c0,0-2.56,7.55,8.24,7.08s7.77,0,7.77,0-6,12.87-8.76,14.49,4.88,8.12,26.05,1.51l1.79-16.06s20.84-5.47,17.74-27S523.68,88.92,503.38,95.71Z"/><path class="cls-20" d="M492.13,117.45s3.26-2.52,5.63,0"/><circle class="cls-12" cx="494.03" cy="121.98" r="1.46"/><rect class="cls-21" x="493.5" y="93.27" width="57.46" height="64.52" transform="translate(14.01 -48.24) rotate(5.36)"/><circle class="cls-22" cx="522.99" cy="117.45" r="11.1"/><rect class="cls-22" x="511.11" y="143.52" width="19.17" height="14.19" transform="translate(16.35 -47.99) rotate(5.36)"/><path class="cls-19" d="M436.33,167.39l-11.82-4.54a2.23,2.23,0,0,1-1.13-2l.07-6.5s-2-2.81-3,1.93-5,.24-5.1-.81-5.6,3.17-3.25,9a11.81,11.81,0,0,0,8.36,6.91l11.69,5.62Z"/><path class="cls-14" d="M434.42,164.71c.71-.71,29.45,9.5,29.94,9.31s25-2.62,31.21-3.92,5.65,5.05,5.82,12.43-34.29,9.85-34.29,9.85l-35.61-9S429,170.13,434.42,164.71Z"/><path class="cls-23" d="M451.49,189.09s15.49,5.29,25,5,29.34-5.34,29.34-5.34"/><path class="cls-23" d="M464.36,174s-1.79.33,0,5.31"/><polygon class="cls-24" points="464.63 68.15 431.41 32.61 416.7 59.81 464.63 68.15"/><line class="cls-25" x1="431.22" y1="31.54" x2="396.07" y2="96.53"/><rect class="cls-13" x="398.84" y="75.72" width="4.26" height="10.19" rx="2.13" transform="translate(51.37 293.15) rotate(-42.67)"/><rect class="cls-13" x="401.37" y="72.36" width="4.26" height="10.19" rx="2.13" transform="translate(54.31 293.98) rotate(-42.67)"/><rect class="cls-13" x="404.17" y="69.22" width="4.26" height="10.19" rx="2.13" transform="translate(57.18 295.04) rotate(-42.67)"/><rect class="cls-13" x="407.58" y="66.93" width="4.26" height="10.19" rx="2.13" transform="translate(59.64 296.75) rotate(-42.67)"/><path class="cls-23" d="M402.85,85.68s3.49.61,3.45-3a2.65,2.65,0,0,0,2.07-2.92s2.23.47,2-2.79a3.14,3.14,0,0,0,3.81-3l-3.72-4.7"/><line class="cls-23" x1="400.53" y1="77.19" x2="406.3" y2="82.69"/><line class="cls-23" x1="402.25" y1="73.48" x2="408.03" y2="79.63"/><line class="cls-23" x1="405.14" y1="70.53" x2="410.67" y2="76.72"/><rect class="cls-4" x="741.04" y="42.08" width="166.13" height="211.55"/><path class="cls-26" d="M741.26,172.56s73.53,77.23,165.6,26.3l.31,54.78H740.44Z"/><rect class="cls-27" x="738.74" y="22.82" width="18.33" height="47.87" transform="translate(387.3 -610.14) rotate(57.66)"/><path class="cls-28" d="M741,253.64s100.2-7.88,87-61.26c-8.67-35.07-64.6-20.71-49.75,17.91,16,41.61,111.39,44.93,130.69,3.82"/><path class="cls-29" d="M824.41,254.69c8.19-4.63,21.09-16.08,28.68-43.84,7.22-26.44,18.54-44.44,33.62-53.53a38.74,38.74,0,0,1,20.15-5.86v8.09c-2.05-.09-8.58.08-16.52,5-8.92,5.58-21.28,18.5-29.45,48.4-5.83,21.34-14.8,34.1-23,41.71Z"/><path class="cls-30" d="M463,217.43,443,188a17.18,17.18,0,0,0-23.24-9.33l-32.29,15,13,18.46,21.33-7.28,10.88,13.76Z"/><path class="cls-30" d="M253.46,353.58H545.37a7.55,7.55,0,0,1,7.55,7.55v8.45a0,0,0,0,1,0,0h-307a0,0,0,0,1,0,0v-8.45A7.55,7.55,0,0,1,253.46,353.58Z"/><path class="cls-11" d="M526.86,346.58H538a3.94,3.94,0,0,1,3.94,3.94v3.06a0,0,0,0,1,0,0h-19a0,0,0,0,1,0,0v-3.06A3.94,3.94,0,0,1,526.86,346.58Z"/><path class="cls-11" d="M415.71,245.58c1,2,26.2,68,26.2,68h15l40-46Z"/><circle class="cls-30" cx="452.41" cy="306.08" r="27.5"/><path class="cls-29" d="M290.18,353.58l24.73-26v-57h14v59l-10,14s52.82,7.36,87.93-5.82a47.06,47.06,0,0,0,25.53-23.09l7-14.07a15.59,15.59,0,0,1,19.94-7.42h0a15.6,15.6,0,0,1,9.53,15.8l-1.43,15.76a36.26,36.26,0,0,0,10.39,28.84H290.18Z"/><path class="cls-31" d="M313.18,151.56a63.38,63.38,0,0,0-54.53,30.73c-20,32.75,29.72,53.46,74.66,57.47s101.77,12,149.54,36.09,82.85,26.68,113.81-24.79c18-29.84,32.06-56.5,40.38-72.87,3.85-7.58-1-18.5-12.38-18.5a113.36,113.36,0,0,0-28.89,3.52S576,129.86,554,109.05c-9.44-8.94-15.57-.09-17,8.41-4.35,25.77-17.26,76.36-62.86,85.21-62.88,12.21-64-5.44-64-5.44a70.75,70.75,0,0,1,1.91-33.72,11.32,11.32,0,0,0-7.89-14.33l-2.93-.78,12.31-16.86a7.91,7.91,0,0,0-4.71-12.4h0A7.93,7.93,0,0,0,401,122l-18.92,23.74S317.75,130.29,313.18,151.56Z"/><path class="cls-15" d="M313.18,151.56s70.19,7.16,50.15,39.91,69,54.52,118.3,33.77c30.4-12.81,34-22.47,58-38.91,34.09-23.4,56.13-23.12,56.13-23.12S576,129.86,554,109.05c-9.44-8.94-15.57-.09-17,8.41-4.35,25.77-17.26,76.36-62.86,85.21-62.88,12.21-64-5.44-64-5.44a70.71,70.71,0,0,1,3.5-38.24,6.29,6.29,0,0,0-4.21-8.42l-8.2-2.17,14-19.16a6,6,0,0,0-3.61-9.49l-3.91-.85a6,6,0,0,0-6,2.15L384,143.24a5,5,0,0,1-4.95,1.78C366.31,142.3,317.15,133.06,313.18,151.56Z"/><path class="cls-24" d="M579.09,169.55c-1.68.6-3.37,1.16-5,1.81a198.08,198.08,0,0,0-19.62,8.7c-12.8,6.5-47.59,32.36-53.58,36.51s-12.84,7-19.7,9.52A109.59,109.59,0,0,1,460,231.31c-7.17,1.1-14.38,1.75-21.6,2.19,7.2-.65,14.39-1.51,21.49-2.8a109.15,109.15,0,0,0,20.79-5.78,83.71,83.71,0,0,0,18.64-10.61c5.78-4.26,11.31-8.93,17-13.39a260.6,260.6,0,0,1,36.31-24.17,197.79,197.79,0,0,1,19.76-9.45c1.69-.72,3.41-1.35,5.12-2s3.44-1.26,5.19-1.83,8.9-3.35,10.87-3.74l2.14,3.5S580.78,169,579.09,169.55Z"/><circle class="cls-12" cx="351.12" cy="213.96" r="39.46"/><circle class="cls-32" cx="351.12" cy="213.96" r="30.88"/><circle class="cls-12" cx="530.69" cy="257.99" r="39.46"/><circle class="cls-32" cx="530.69" cy="257.99" r="30.88"/><path class="cls-29" d="M312.13,151.83s1.79-10,20.07-11.17c15.69-1,3.54,13.5-.31,14.69S315.53,156.57,312.13,151.83Z"/><path class="cls-29" d="M272.17,166.4s-6.45,26.95-2.18,54.35a30.81,30.81,0,0,1-18.27-25.64C250.35,179.82,272.17,166.4,272.17,166.4Z"/><circle class="cls-33" cx="396.22" cy="222.94" r="2.68"/><circle class="cls-33" cx="584.26" cy="156.02" r="2.68"/><path class="cls-31" d="M881.3,144.31a11,11,0,0,1,10.9-.17c5.89,3.15.23,10.64-6.17,15.2s-14.23,10.75-19.29,18.56-10.1,11.3-19.28,6.29c-5.32-2.91-9.78-5.67-12.47-7.4a2.25,2.25,0,0,1,.23-3.87,19.74,19.74,0,0,1,4.65-2,51.22,51.22,0,0,1,1.51-11.81c.63-2.17,2.33-1.38,3.3-.23,2.91,3.49,9.3,10,16.93,7.28,10.52-3.7,9.14-6.45,9.14-6.45a12.2,12.2,0,0,0-4.91-6.15l1.95-2-3.33-1.45a1.38,1.38,0,0,1-.38-2.28h0a1.39,1.39,0,0,1,1.43-.27l4.93,1.91S878.75,141.52,881.3,144.31Z"/><path class="cls-15" d="M881.3,144.31s-9.91,7.25-4,10.41S871.7,169,862.47,170.19c-5.69.75-7.09-.38-12.14-.74-7.17-.52-10.46,1.46-10.46,1.46a51.22,51.22,0,0,1,1.51-11.81c.63-2.17,2.33-1.38,3.3-.23,2.91,3.49,9.3,10,16.93,7.28,10.52-3.7,9.14-6.45,9.14-6.45a12.34,12.34,0,0,0-3.89-5.44,1.09,1.09,0,0,1-.11-1.63l1-1L864,149.93a1.05,1.05,0,0,1-.3-1.74l.52-.47a1.06,1.06,0,0,1,1.09-.21l4.61,1.78a.85.85,0,0,0,.9-.17C872.51,147.59,879.08,141.88,881.3,144.31Z"/><circle class="cls-12" cx="881.09" cy="157.02" r="6.87"/><circle class="cls-32" cx="881.09" cy="157.02" r="5.38"/><circle class="cls-12" cx="857.98" cy="179.43" r="6.87"/><circle class="cls-32" cx="857.98" cy="179.43" r="5.38"/><path class="cls-29" d="M881.48,144.26s-1.14-1.34-4,.09c-2.45,1.23.65,2.34,1.33,2.18S881.39,145.27,881.48,144.26Z"/><path class="cls-29" d="M888.77,142.94a27.59,27.59,0,0,1,5.1,8,5.36,5.36,0,0,0,.49-5.46C893.23,143,888.77,142.94,888.77,142.94Z"/><rect class="cls-4" x="240.47" y="236.58" width="100.44" height="58" rx="6.49"/><rect class="cls-34" x="314.18" y="242.58" width="17" height="45" rx="4.02"/><rect class="cls-12" x="321.18" y="245.58" width="3" height="13" rx="1.5"/><circle class="cls-32" cx="322.68" cy="273.08" r="5.5"/><circle class="cls-11" cx="452.41" cy="307.08" r="4.5"/><path class="cls-35" d="M440,53a4.72,4.72,0,0,1-.16-1.63,11.87,11.87,0,0,1,.62-3,2.77,2.77,0,1,0-5.21-1.91.32.32,0,0,0,0,.09h0v0a10.34,10.34,0,0,1-1.64,2.84,6.25,6.25,0,0,1-1,.91,4.81,4.81,0,1,0,7.31,5.56A4.89,4.89,0,0,0,440,53"/><g class="cls-36"><rect class="cls-12" x="425.71" y="43.84" width="21.16" height="15.94" transform="translate(237.52 443.64) rotate(-69.87)"/></g><g class="cls-37"><rect class="cls-15" x="426.88" y="45.17" width="18.81" height="13.34" transform="translate(237.49 443.65) rotate(-69.87)"/></g><g class="cls-38"><rect class="cls-39" x="432.9" y="44.97" width="8.31" height="9.32" transform="translate(240.07 442.92) rotate(-69.87)"/></g><g class="cls-40"><rect class="cls-12" x="425.13" y="47.41" width="13.79" height="10.31" transform="translate(234.02 440.13) rotate(-69.87)"/></g><g class="cls-41"><rect class="cls-12" x="432.18" y="49.59" width="13.79" height="10.31" transform="translate(236.6 448.17) rotate(-69.87)"/></g><g class="cls-42"><rect class="cls-39" x="431.78" y="52.56" width="10.79" height="10.93" transform="translate(232.27 448.54) rotate(-69.87)"/></g><g class="cls-43"><rect class="cls-39" x="425.94" y="50.42" width="10.79" height="10.93" transform="translate(230.45 441.65) rotate(-69.87)"/></g><g id="XVEF3Q.tif"><path class="cls-15" d="M277,277.57h2.59v.33c0,1.76,0,3.52,0,5.27a4.75,4.75,0,0,0,.19,1.41,1.67,1.67,0,0,0,2.78.72,2.62,2.62,0,0,0,.84-1.92c0-1.78,0-3.57,0-5.36v-.44H286v9.92h-2.42l-.12-2c-.12.2-.2.36-.29.51a3.48,3.48,0,0,1-5.18.88,3.33,3.33,0,0,1-1-2.5c0-1.87,0-3.74,0-5.61Z"/><path class="cls-15" d="M274.62,287.5h-2.57v-.33c0-1.73,0-3.46,0-5.19a5.41,5.41,0,0,0-.18-1.44,1.68,1.68,0,0,0-2.83-.72,2.7,2.7,0,0,0-.8,1.85c0,1.8,0,3.6-.05,5.4v.43h-2.59v-9.92H268l.13,2,.24-.42a3.46,3.46,0,0,1,4.69-1.35,3,3,0,0,1,1.49,2.39,7.56,7.56,0,0,1,.08,1.06v6C274.63,287.33,274.62,287.41,274.62,287.5Z"/><path class="cls-15" d="M258.41,287.51h-9.64V274.57h2.71v10.85h6.93Z"/><path class="cls-15" d="M287.47,287.52l3.64-5.14-3.47-4.82c.72,0,1.39.05,2.05,0a1.06,1.06,0,0,1,1.15.62c.47.81,1,1.57,1.52,2.35l.2.3,1.37-2.1c.21-.33.41-.65.64-1,.05-.08.15-.18.24-.18h2.68L294,282.35l3.67,5.17h-.63c-.63,0-1.26,0-1.88,0a.47.47,0,0,1-.46-.24c-.64-1-1.3-2.05-2-3.07l-.2-.29-.19.28c-.67,1-1.33,2.05-2,3.08a.46.46,0,0,1-.43.24C289.15,287.51,288.34,287.52,287.47,287.52Z"/><path class="cls-15" d="M260.36,277.57h2.55v9.92h-2.55Z"/><path class="cls-15" d="M262.91,273.89v1.87h-2.55v-1.87Z"/></g><path class="cls-15" d="M250.68,266a1.68,1.68,0,0,1,1.89,1.81c0,1.2-.8,1.78-2,1.78h-.84v1.86h-1.07V266Zm.77,1.8c0-.51-.32-.84-.94-.84h-.78v1.68h.73C251.13,268.63,251.45,268.29,251.45,267.79Z"/><path class="cls-15" d="M253.09,269.57a2,2,0,1,1,2,1.94A1.88,1.88,0,0,1,253.09,269.57Zm3,0a1,1,0,1,0-1,1A1,1,0,0,0,256.05,269.57Z"/><path class="cls-15" d="M258.31,267.69,259,270h0l.67-2.29h.81l.67,2.29h0l.71-2.29h1l-1.28,3.75h-.86l-.68-2.28h0l-.66,2.28h-.87l-1.27-3.75Z"/><path class="cls-15" d="M266.79,269.89h-2.64a1,1,0,0,0,1,.72,1.12,1.12,0,0,0,.92-.42l.65.61a1.93,1.93,0,0,1-1.64.71,1.86,1.86,0,0,1-2-1.95,1.84,1.84,0,0,1,1.9-1.93,1.78,1.78,0,0,1,1.8,1.9C266.81,269.65,266.79,269.83,266.79,269.89Zm-2.63-.72h1.65a.79.79,0,0,0-.81-.66A.84.84,0,0,0,264.16,269.17Z"/><path class="cls-15" d="M268.6,267.69v.54h0a1.42,1.42,0,0,1,1.13-.6h.08v1.1h-.27a.9.9,0,0,0-.95,1v1.73h-1v-3.75Z"/><path class="cls-15" d="M273.81,269.89h-2.63a1,1,0,0,0,1,.72,1.09,1.09,0,0,0,.91-.42l.66.61a1.93,1.93,0,0,1-1.64.71,1.86,1.86,0,0,1-2-1.95,1.84,1.84,0,0,1,1.9-1.93,1.78,1.78,0,0,1,1.8,1.9A2.87,2.87,0,0,1,273.81,269.89Zm-2.62-.72h1.65a.79.79,0,0,0-.81-.66A.83.83,0,0,0,271.19,269.17Z"/><path class="cls-15" d="M274.4,269.58a1.82,1.82,0,0,1,1.78-1.95,1.41,1.41,0,0,1,1.13.5h0v-2.34h1v5.65h-1V271h0a1.39,1.39,0,0,1-1.16.53A1.79,1.79,0,0,1,274.4,269.58Zm3,0a1,1,0,0,0-1-1.05,1,1,0,0,0-1,1.05,1,1,0,0,0,1,1A1,1,0,0,0,277.37,269.58Z"/><path class="cls-15" d="M282.26,271h0v.45h-1v-5.65h1v2.33h0a1.45,1.45,0,0,1,1.13-.49,1.81,1.81,0,0,1,1.78,1.95,1.79,1.79,0,0,1-1.81,1.93A1.37,1.37,0,0,1,282.26,271Zm1.94-1.4a1,1,0,1,0-1.95,0,1,1,0,0,0,1,1A1,1,0,0,0,284.2,269.58Z"/><path class="cls-15" d="M285.38,267.69h1.07l.91,2.3h0l.85-2.3h1l-2,5.27h-1l.67-1.75Z"/><g class="cls-44"><rect class="cls-24" x="248.66" y="243.69" width="16.79" height="16.79" transform="translate(-1.4 1.44) rotate(-0.32)"/></g><g class="cls-45"><rect class="cls-15" x="250.61" y="245.64" width="12.89" height="12.89" transform="translate(-1.4 1.44) rotate(-0.32)"/></g><g class="cls-46"><rect class="cls-47" x="255.11" y="247.13" width="3.9" height="9.89" transform="translate(-1.4 1.44) rotate(-0.32)"/></g><g class="cls-48"><rect class="cls-15" x="246.71" y="241.74" width="20.69" height="20.69" transform="translate(-1.4 1.44) rotate(-0.32)"/></g><g id="rUiMON.tif"><path class="cls-32" d="M556.48,187.8h.69l.63,0a11.57,11.57,0,0,1,2.4.4,13.11,13.11,0,0,1,7.63,5.39,12.93,12.93,0,0,1,2.29,7l0,.21v.59l0,.19c0,.47-.06.94-.12,1.41a12.11,12.11,0,0,1-.81,3,13.25,13.25,0,0,1-13.33,8.34,12.57,12.57,0,0,1-2.65-.46,13,13,0,0,1-5.57-3.19,13.19,13.19,0,0,1-4.1-8.81,12.83,12.83,0,0,1,.07-2.32,12.5,12.5,0,0,1,.61-2.76,13.2,13.2,0,0,1,4.88-6.56,13,13,0,0,1,7.2-2.46A1.13,1.13,0,0,0,556.48,187.8Zm-3.11,6.38.07.15c.38.65.76,1.3,1.13,2,.06.1.1.12.21.07a5.23,5.23,0,0,1,3.77-.12,5.11,5.11,0,0,1,3.43,4.32c0,.09,0,.1.12.1h2.34c.09,0,.12,0,.11-.11,0-.28-.06-.56-.11-.83a7.62,7.62,0,0,0-2.11-4,.17.17,0,0,0-.19-.05,3.25,3.25,0,0,1-.62.13,2.44,2.44,0,0,1-1.88-.69,2.38,2.38,0,0,1-.71-1.26c0-.07,0-.15-.11-.17-.49-.08-1-.2-1.47-.23a7.28,7.28,0,0,0-3.07.41C554,193.93,553.68,194.06,553.37,194.18Zm0,13.86.09.05a7.65,7.65,0,0,0,2.89.76,7.89,7.89,0,0,0,2.37-.22.24.24,0,0,0,.22-.21,2.29,2.29,0,0,1,.74-1.28,2.43,2.43,0,0,1,2.45-.53c.08,0,.14,0,.2,0a7.83,7.83,0,0,0,1.79-2.84,7.65,7.65,0,0,0,.42-1.94c0-.2,0-.2-.18-.2h-2.21c-.12,0-.19,0-.18.16a.75.75,0,0,1,0,.21,5.15,5.15,0,0,1-1.9,3.23,5,5,0,0,1-2.84,1.11,5.12,5.12,0,0,1-2.44-.41c-.09,0-.14,0-.19.06-.3.54-.61,1.07-.92,1.6C553.57,207.71,553.47,207.87,553.37,208Zm-.84-.45,0,0s0,0,0,0l1.22-2.11c0-.06,0-.09,0-.13s-.37-.28-.53-.44a5.08,5.08,0,0,1-1.47-4.85,5,5,0,0,1,2-3c.07-.06.09-.1,0-.18-.4-.67-.79-1.35-1.18-2l-.05-.07-.11.06a7.76,7.76,0,0,0-3.06,4.24.29.29,0,0,0,.1.35,2.36,2.36,0,0,1,.76,1.76,2.41,2.41,0,0,1-.83,1.89.16.16,0,0,0,0,.2,7.6,7.6,0,0,0,2.24,3.65C551.9,207.1,552.22,207.34,552.53,207.59Zm8.83-16.1a1.79,1.79,0,1,0,0,3.58,1.81,1.81,0,0,0,1.74-1.8A1.79,1.79,0,0,0,561.36,191.49Zm-13.59,11.42a1.79,1.79,0,1,0-1.79-1.79A1.77,1.77,0,0,0,547.77,202.91Zm13.59,7.84a1.79,1.79,0,1,0-1.79-1.78A1.77,1.77,0,0,0,561.36,210.75Z"/><path class="cls-15" d="M553.37,194.18c.31-.12.6-.25.91-.36a7.28,7.28,0,0,1,3.07-.41c.49,0,1,.15,1.47.23.1,0,.1.1.11.17a2.38,2.38,0,0,0,.71,1.26,2.44,2.44,0,0,0,1.88.69,3.25,3.25,0,0,0,.62-.13.17.17,0,0,1,.19.05,7.62,7.62,0,0,1,2.11,4c0,.27.07.55.11.83,0,.08,0,.11-.11.11H562.1c-.07,0-.11,0-.12-.1a5.11,5.11,0,0,0-3.43-4.32,5.23,5.23,0,0,0-3.77.12c-.11,0-.15,0-.21-.07-.37-.66-.75-1.31-1.13-2Z"/><path class="cls-15" d="M553.37,208c.1-.17.2-.33.29-.5.31-.53.62-1.06.92-1.6,0-.09.1-.1.19-.06a5.12,5.12,0,0,0,2.44.41,5,5,0,0,0,2.84-1.11A5.15,5.15,0,0,0,562,202a.75.75,0,0,0,0-.21c0-.14.06-.16.18-.16h2.21c.2,0,.19,0,.18.2a7.65,7.65,0,0,1-.42,1.94,7.83,7.83,0,0,1-1.79,2.84c-.06.07-.12.06-.2,0a2.43,2.43,0,0,0-2.45.53,2.29,2.29,0,0,0-.74,1.28.24.24,0,0,1-.22.21,7.89,7.89,0,0,1-2.37.22,7.65,7.65,0,0,1-2.89-.76Z"/><path class="cls-15" d="M552.53,207.59c-.31-.25-.63-.49-.92-.76a7.6,7.6,0,0,1-2.24-3.65.16.16,0,0,1,0-.2,2.41,2.41,0,0,0,.83-1.89,2.36,2.36,0,0,0-.76-1.76.29.29,0,0,1-.1-.35,7.76,7.76,0,0,1,3.06-4.24l.11-.06.05.07c.39.68.78,1.36,1.18,2,.05.08,0,.12,0,.18a5,5,0,0,0-2,3,5.08,5.08,0,0,0,1.47,4.85c.16.16.35.29.53.44s.07.07,0,.13l-1.22,2.11s0,0,0,0Z"/><path class="cls-15" d="M561.36,191.49a1.79,1.79,0,0,1,1.79,1.78,1.79,1.79,0,1,1-3.58,0A1.78,1.78,0,0,1,561.36,191.49Z"/><path class="cls-15" d="M547.77,202.91a1.77,1.77,0,0,1-1.79-1.79,1.79,1.79,0,1,1,1.79,1.79Z"/><path class="cls-15" d="M561.36,210.75a1.79,1.79,0,1,1,1.79-1.79A1.77,1.77,0,0,1,561.36,210.75Z"/></g><g id="TAsfJA"><path class="cls-32" d="M618.43,185.82a7.37,7.37,0,0,1,.9,3.81,3.85,3.85,0,0,1-4.34,3.64,7.53,7.53,0,0,1-3.34-1.27,22.87,22.87,0,0,1-7.73-9.18,17.23,17.23,0,0,1-2-6.64,4.89,4.89,0,0,1,.5-2.78,2.39,2.39,0,0,1,2.63-1.23,7.32,7.32,0,0,1,2.74,1.31c.18.13.36.28.55.41a2.66,2.66,0,0,0-1.22,2.75,8.4,8.4,0,0,0,.43,2.22,15.87,15.87,0,0,0,5.4,7.61,5.77,5.77,0,0,0,2.57,1.18,2.26,2.26,0,0,0,2.47-1A5,5,0,0,1,618.43,185.82Z"/><path class="cls-32" d="M609.28,173.4c1.22-.76,2.45-1.53,3.72-2.2a1.59,1.59,0,0,1,1.67,0,1.83,1.83,0,0,1,.67.81c.15.3.28.62.45.91a1.12,1.12,0,0,0,1.19.65,1.66,1.66,0,0,1,1.78.93,26.23,26.23,0,0,1,2.17,4.09,2.81,2.81,0,0,1-.13,2.61c-.72,1.28-1.35,2.62-2,3.93a2.16,2.16,0,0,1-2.63.4,6.92,6.92,0,0,1-1.52-.92,14.6,14.6,0,0,1-3-3.15,13.52,13.52,0,0,1-2.64-6.7A1.89,1.89,0,0,1,609.28,173.4Z"/><path class="cls-12" d="M609.28,173.4a1.89,1.89,0,0,0-.27,1.31,13.52,13.52,0,0,0,2.64,6.7,14.6,14.6,0,0,0,3,3.15,6.92,6.92,0,0,0,1.52.92,2.16,2.16,0,0,0,2.63-.4l-.35.74a5,5,0,0,0-.47.81,2.26,2.26,0,0,1-2.47,1,5.77,5.77,0,0,1-2.57-1.18,15.87,15.87,0,0,1-5.4-7.61,8.4,8.4,0,0,1-.43-2.22,2.66,2.66,0,0,1,1.22-2.75Z"/></g><rect class="cls-27" x="893.29" y="22.82" width="18.33" height="47.87" transform="translate(1536.15 -597.48) rotate(131.56)"/><path class="cls-15" d="M762.55,106c0-6,3.86-10.86,10.68-10.86a10.83,10.83,0,0,1,8.4,4.06l-3.09,2.58a6.71,6.71,0,0,0-5.31-2.66c-3.59,0-6.31,2.66-6.31,6.88,0,3.91,2.61,6.73,6.37,6.73a6.81,6.81,0,0,0,5.31-2.67l3.06,2.64a10.55,10.55,0,0,1-8.37,4C767.42,116.69,762.55,113,762.55,106Z"/><path class="cls-15" d="M784,106c0-6.26,4.36-10.8,10.74-10.8,6.17,0,10.71,4.36,10.71,10.8a10.33,10.33,0,0,1-10.71,10.79C788.33,116.74,784,112.21,784,106Zm17.09,0c0-4-2.73-6.88-6.35-6.88-3.8,0-6.41,3.05-6.41,6.88s2.61,6.88,6.41,6.88C798.33,112.83,801.06,109.92,801.06,106Z"/><path class="cls-15" d="M813.33,95.42l6.47,12h.06l6.47-12h4.18v21.06h-4.15v-13h-.06l-5.13,9h-2.7l-5.11-9.07h-.06v13h-4.15V95.42Z"/><path class="cls-15" d="M839.47,95.42v21.06h-4.25V95.42Z"/><path class="cls-15" d="M848.28,95.42l9.46,14.21h.06V95.42h4.12v21.06h-4.18l-9.35-13.91h-.06v13.91h-4.15V95.42Z"/><path class="cls-15" d="M865.66,106c0-6.17,4-10.83,10.56-10.83a11.37,11.37,0,0,1,8.36,3.59l-2.94,2.55a7.47,7.47,0,0,0-5.42-2.2c-3.47,0-6.2,2.59-6.2,6.89,0,3.88,2.43,6.91,6.37,6.91a7.79,7.79,0,0,0,4.24-1.22v-3.08h-4.71V105h8.78v9.08a13.87,13.87,0,0,1-8.31,2.61C870.31,116.69,865.66,112.74,865.66,106Z"/><path class="cls-31" d="M801.27,126.49a3.26,3.26,0,0,1,3.11-3.37,2,2,0,0,1,2.1,2c0,1.43-1.88,3.61-1.88,3.61s3.07,2.53,3.08,5.2a6.63,6.63,0,0,1-.49,2.59c1.39,0,2.51-1.13,3.77-2.84l.55.43a9.62,9.62,0,0,1-8.29,4.48c-4.52,0-5.46-2.06-5.47-3.49a2.38,2.38,0,0,1,2.16-2.37c.42,0,2.23-2.41,2.22-3.53A6.07,6.07,0,0,1,801.27,126.49Zm-.24,6.38a2.14,2.14,0,0,1,1.09,1.7,3.06,3.06,0,0,1-1.34,2.36,1.16,1.16,0,0,0,1.27.88c1.2,0,1.89-1.17,1.89-3.06a9,9,0,0,0-1.38-4Z"/><path class="cls-31" d="M823.43,129.79a10.87,10.87,0,0,1-1.68,5.19s.28.23,1.36.22a3.72,3.72,0,0,0,2.85-1.56l.54.43a4.73,4.73,0,0,1-5.4,1.68,7.68,7.68,0,0,1-5.75,2.93c-2.39,0-5-1.37-5-4.54,0-4.52,3.94-8.29,8.93-8.31A3.86,3.86,0,0,1,823.43,129.79Zm-8.75,5.57c0,1.66.67,2.31,1.52,2.31,2.09,0,3-2.37,3-2.37a1.79,1.79,0,0,1-.86-1.54,1.73,1.73,0,0,1,1.5-1.83,1.51,1.51,0,0,1,.85.27,7.51,7.51,0,0,0,.8-3.21c0-1.39-.67-2.24-2-2.23C817,126.77,814.67,131.65,814.68,135.36Z"/><path class="cls-31" d="M838.51,129.72a10.87,10.87,0,0,1-1.68,5.19s.27.23,1.35.22a3.69,3.69,0,0,0,2.85-1.56l.55.43a4.58,4.58,0,0,1-3.86,1.95,4.5,4.5,0,0,1-1.55-.27,7.68,7.68,0,0,1-5.74,2.93c-2.4,0-4.95-1.37-5-4.54,0-4.52,3.94-8.29,8.93-8.31A3.87,3.87,0,0,1,838.51,129.72Zm-8.75,5.57c0,1.66.66,2.32,1.52,2.31,2.08,0,3-2.37,3-2.37a1.81,1.81,0,0,1-.86-1.54,1.74,1.74,0,0,1,1.5-1.83,1.51,1.51,0,0,1,.85.27,7.34,7.34,0,0,0,.8-3.21c0-1.39-.67-2.24-1.94-2.23C832,126.7,829.74,131.58,829.76,135.29Z"/><path class="cls-31" d="M855.42,135.52c.23,0,.35.11.35.38,0,.58-1.88,2.25-3.89,2.26-1.7,0-3-.76-3-2.77,0-2.66,1.6-5.11,1.59-7.08,0-.5-.2-.81-.7-.8-1.12,0-3.31,1.87-4,3.34a19.92,19.92,0,0,0-1.63,6.42c0,.93-2.86.94-3.25.94s-.5-.15-.5-.54c0-2.66,1.39-8.16,1.85-10.21.15-.62.22-1,1-1.16a12.09,12.09,0,0,1,3-.59c.35,0,.62.11.62.53a9,9,0,0,1-.57,2.44c.93-1,3.66-2.88,5.83-2.89,2,0,2.51,1,2.52,2.47,0,1.7-1.57,4.29-1.55,6.77,0,.81.39,1.31,1,1.31S855.15,135.52,855.42,135.52Z"/><ellipse class="cls-6" cx="825.75" cy="68.11" rx="25.99" ry="17.29"/><path class="cls-15" d="M817.1,58.55v18.7h-3.7V63.17a12.62,12.62,0,0,1-3.21.44V61.35a7.54,7.54,0,0,0,4-2.8Z"/><path class="cls-15" d="M820.67,75.29a2.23,2.23,0,1,1,2.26,2.2A2.22,2.22,0,0,1,820.67,75.29Z"/><path class="cls-15" d="M827.5,67.91c0-5.72,2.78-9.58,7.3-9.58,4.32,0,7.29,3.51,7.29,9.58,0,5.72-2.75,9.58-7.29,9.58C830.47,77.49,827.5,74,827.5,67.91Zm10.81,0c0-3.81-1.28-6.15-3.51-6.15s-3.51,2.17-3.51,6.15c0,3.76,1.33,6.12,3.51,6.12S838.31,71.88,838.31,67.91Z"/><rect class="cls-3" x="740.44" y="130.01" width="59.37" height="123.63"/><path class="cls-4" d="M709,387c.23-2.9.28-6,.23-9s-.22-6.06-.49-9.08a118.11,118.11,0,0,0-3-18c-.73-2.95-1.59-5.88-2.61-8.75-.48-1.45-1.06-2.86-1.6-4.29s-1.17-2.82-1.85-4.19a75.42,75.42,0,0,0-9.7-15.56,75.85,75.85,0,0,1,10.59,15.11c.76,1.35,1.41,2.75,2.1,4.14s1.3,2.81,1.86,4.25c1.19,2.86,2.23,5.79,3.14,8.76a119.45,119.45,0,0,1,4.05,18.16q.67,4.62,1,9.29c.22,3.12.35,6.19.27,9.42Z"/><path class="cls-4" d="M705,387.59c-.6-4-1.48-8.16-2.49-12.19s-2.17-8.1-3.48-12.09A161.64,161.64,0,0,0,689.39,340c-1.9-3.75-4-7.42-6.23-11-1.1-1.8-2.32-3.52-3.49-5.27s-2.45-3.43-3.79-5.07A104,104,0,0,0,658,300.77a105.08,105.08,0,0,1,19,17.06c1.44,1.58,2.75,3.27,4.12,4.92s2.61,3.38,3.82,5.15c2.49,3.48,4.79,7.1,6.94,10.81a166.26,166.26,0,0,1,11.1,23.2q2.34,6,4.24,12.19,1,3.09,1.78,6.22c.55,2.11,1.06,4.16,1.51,6.39Z"/><path class="cls-4" d="M808.13,383c-.17-1.56-.47-3.34-.83-5s-.77-3.39-1.25-5.07a68.83,68.83,0,0,0-3.64-9.84A53.41,53.41,0,0,0,797.1,354a46.22,46.22,0,0,0-7.23-7.84,46.59,46.59,0,0,1,8.29,7,55.34,55.34,0,0,1,6.68,8.68,73.66,73.66,0,0,1,5.12,9.76c.72,1.7,1.4,3.42,2,5.18s1.15,3.48,1.63,5.44Z"/><path class="cls-4" d="M812.06,384.55a46.79,46.79,0,0,0,.87-5c.23-1.72.38-3.45.49-5.19a70.84,70.84,0,0,0-.21-10.5,53.48,53.48,0,0,0-2-10.36,46.13,46.13,0,0,0-4.25-9.77,46.71,46.71,0,0,1,5.55,9.29,55.31,55.31,0,0,1,3.45,10.39,71.44,71.44,0,0,1,1.63,10.91c.13,1.84.21,3.68.2,5.54a55.22,55.22,0,0,1-.25,5.67Z"/><path class="cls-4" d="M820.09,379.92c.44-2.74,1-5.28,1.55-7.89s1.23-5.14,1.93-7.69q2.11-7.63,4.94-15A124.52,124.52,0,0,1,835.16,335a83.44,83.44,0,0,1,8.89-12.9,83.61,83.61,0,0,0-7.37,13.64,121.89,121.89,0,0,0-4.95,14.61q-2,7.46-3.2,15.05c-.41,2.52-.76,5.06-1,7.6s-.52,5.11-.64,7.53Z"/><path class="cls-4" d="M208.73,372.26c-.17-1.57-.46-3.35-.82-5s-.78-3.38-1.25-5.07a70.52,70.52,0,0,0-3.64-9.84,54.76,54.76,0,0,0-5.31-9.12,46.66,46.66,0,0,0-7.24-7.84,47,47,0,0,1,8.3,7,55.89,55.89,0,0,1,6.67,8.68,72,72,0,0,1,5.12,9.77c.72,1.69,1.4,3.41,2,5.17a54.26,54.26,0,0,1,1.62,5.44Z"/><path class="cls-4" d="M212.67,373.76c.35-1.54.66-3.31.87-5s.38-3.46.48-5.2a68.07,68.07,0,0,0-.21-10.49,54.07,54.07,0,0,0-2-10.36,46.54,46.54,0,0,0-4.26-9.78,47,47,0,0,1,5.55,9.29,56.07,56.07,0,0,1,3.46,10.39,74,74,0,0,1,1.63,10.91c.12,1.84.2,3.69.19,5.54a52.82,52.82,0,0,1-.25,5.68Z"/><path class="cls-20" d="M434.29,120.68a11.52,11.52,0,0,0-3,2.7"/><path class="cls-20" d="M453.53,147.47s-8.36,6.76-9.63,8.45"/><g id="WfKs89.tif-2" data-name="WfKs89.tif"><path class="cls-4" d="M607.66,210.48a10.15,10.15,0,0,1-.21,2,11.74,11.74,0,0,1-2.07,4.64,13.41,13.41,0,0,1-1.17,1.33,12.52,12.52,0,0,1-1,.9,11.68,11.68,0,0,1-2.54,1.47,11.92,11.92,0,0,1-1.95.61,11.17,11.17,0,0,1-5.39-.1c-.87-.23-1.71-.55-2.56-.84l-4.38-1.5c-.81-.28-1.62-.54-2.41-.84a2.48,2.48,0,0,1-1.43-1.52,2.87,2.87,0,0,1,.08-2c.51-1.46,1-2.93,1.51-4.4l1-3a14.82,14.82,0,0,1,1-2.33,11.61,11.61,0,0,1,1.47-2.14,11,11,0,0,1,1.74-1.61,11.18,11.18,0,0,1,2.68-1.49,11.39,11.39,0,0,1,1.6-.5,11,11,0,0,1,3.19-.29,11.24,11.24,0,0,1,3.56.77,11.38,11.38,0,0,1,2.27,1.18,10.92,10.92,0,0,1,1.54,1.25,12.08,12.08,0,0,1,1,1.06,11.3,11.3,0,0,1,1.29,2,11.25,11.25,0,0,1,1.17,3.91A9.4,9.4,0,0,1,607.66,210.48Zm-20.54,7.3c0,.06,0,.06.08.06s.35.22.53.31a5.36,5.36,0,0,0,4.53,0,5.18,5.18,0,0,0,1.22-.76,5.46,5.46,0,0,0,.93-1,6.17,6.17,0,0,0,.87-1.81c.22-.67.46-1.34.69-2,0-.09,0-.23.11-.26s.18.06.28.09l2,.68.19.07a5.08,5.08,0,0,0,2.47.32,5.37,5.37,0,0,0,3.65-2,5.21,5.21,0,0,0,.84-1.51,6.36,6.36,0,0,0,.3-1.44,5.14,5.14,0,0,0-.05-1.24,4.69,4.69,0,0,0-.33-1.13,6,6,0,0,0-.74-1.3,4.79,4.79,0,0,0-1.05-1s-.09-.13-.19-.1h0c0-.08,0-.07-.08-.07l-.31-.19a5,5,0,0,0-2.32-.69,5.15,5.15,0,0,0-1.91.24,5.42,5.42,0,0,0-1.31.62,6,6,0,0,0-1.06.9,5.72,5.72,0,0,0-.83,1.24,12.48,12.48,0,0,0-.59,1.58c-.2.54-.38,1.09-.56,1.64,0,.1-.08.09-.14.07l-.64-.23c-.54-.17-1.08-.38-1.63-.54a6.08,6.08,0,0,0-.72-.24,5.63,5.63,0,0,0-2-.13,4.83,4.83,0,0,0-1.37.34,5.45,5.45,0,0,0-2.08,1.5,5.38,5.38,0,0,0-1.07,2,5.55,5.55,0,0,0-.18,2.14,5.4,5.4,0,0,0,2,3.57c.1.08.19.2.34.2h0c0,.07,0,.07.07.07Z"/><path class="cls-5" d="M592.1,208.35c.55.16,1.09.37,1.63.54l.64.23c.06,0,.1,0,.14-.07.18-.55.36-1.1.56-1.64a12.48,12.48,0,0,1,.59-1.58,5.72,5.72,0,0,1,.83-1.24,6,6,0,0,1,1.06-.9,5.42,5.42,0,0,1,1.31-.62,5.15,5.15,0,0,1,1.91-.24,5,5,0,0,1,2.32.69l.31.19a.14.14,0,0,0,.08.07h0l.14.16a1.26,1.26,0,0,1,.3,1.29,1.13,1.13,0,0,1-1.1.76,2.7,2.7,0,0,1-.63-.12h0l0,0h0a.06.06,0,0,0-.06,0l-.12-.07a3.53,3.53,0,0,0-1.38-.39,3,3,0,0,0-1.24.24,2.75,2.75,0,0,0-1.3,1.13,5.06,5.06,0,0,0-.46,1.13c-.2.57-.39,1.15-.59,1.72a.42.42,0,0,0,.21.52l2,.68s0,0,0,0a1.21,1.21,0,0,1,.65,1.05,1.26,1.26,0,0,1-.87,1.23,1.72,1.72,0,0,1-.6,0l-2-.68c-.1,0-.21-.11-.28-.09s-.08.17-.11.26c-.23.67-.47,1.34-.69,2a6.17,6.17,0,0,1-.87,1.81,5.46,5.46,0,0,1-.93,1,5.18,5.18,0,0,1-1.22.76,5.36,5.36,0,0,1-4.53,0c-.18-.09-.35-.21-.53-.31,0,0-.05-.05-.08-.06h0s0-.06-.07-.07h0l-.13-.15a1.24,1.24,0,0,1-.24-1.41,1.16,1.16,0,0,1,1.18-.63,2.19,2.19,0,0,1,.57.16l.12.06a3,3,0,0,0,2.11.33,2.71,2.71,0,0,0,2-1.65c.34-.82.58-1.68.87-2.52a.39.39,0,0,0-.26-.51l-1.93-.67a1.37,1.37,0,0,1-.65-.89,1.29,1.29,0,0,1,.57-1.29A1.48,1.48,0,0,1,592.1,208.35Z"/><path class="cls-6" d="M592.1,208.35a1.48,1.48,0,0,0-.84.19,1.29,1.29,0,0,0-.57,1.29,1.37,1.37,0,0,0,.65.89c-.23,0-.43-.14-.65-.19a2.8,2.8,0,0,0-1.32,0,2.75,2.75,0,0,0-1.62,1.08,2.72,2.72,0,0,0-.55,1.67,3,3,0,0,0,.16,1,2.91,2.91,0,0,0,.51.89,6.67,6.67,0,0,0,.55.52,2.19,2.19,0,0,0-.57-.16,1.16,1.16,0,0,0-1.18.63,1.24,1.24,0,0,0,.24,1.41l.13.15c-.15,0-.24-.12-.34-.2a5.4,5.4,0,0,1-2-3.57,5.55,5.55,0,0,1,.18-2.14,5.38,5.38,0,0,1,1.07-2,5.45,5.45,0,0,1,2.08-1.5,4.83,4.83,0,0,1,1.37-.34,5.63,5.63,0,0,1,2,.13A6.08,6.08,0,0,1,592.1,208.35Z"/><path class="cls-6" d="M602.19,205.87a2.7,2.7,0,0,0,.63.12,1.13,1.13,0,0,0,1.1-.76,1.26,1.26,0,0,0-.3-1.29l-.14-.16c.1,0,.14.06.19.1a4.79,4.79,0,0,1,1.05,1,6,6,0,0,1,.74,1.3,4.69,4.69,0,0,1,.33,1.13,5.14,5.14,0,0,1,.05,1.24,6.36,6.36,0,0,1-.3,1.44,5.21,5.21,0,0,1-.84,1.51,5.37,5.37,0,0,1-3.65,2,5.08,5.08,0,0,1-2.47-.32l-.19-.07a1.72,1.72,0,0,0,.6,0,1.26,1.26,0,0,0,.87-1.23,1.21,1.21,0,0,0-.65-1.05s0,0,0,0l.16,0a4,4,0,0,0,.75.21,2.86,2.86,0,0,0,1.23-.11,2.86,2.86,0,0,0,1.72-1.46,2.86,2.86,0,0,0,.23-1.86,2.73,2.73,0,0,0-.81-1.46C602.38,206.05,602.25,206,602.19,205.87Z"/><path class="cls-7" d="M603.48,203.78a.14.14,0,0,1-.08-.07C603.45,203.71,603.51,203.7,603.48,203.78Z"/><path class="cls-7" d="M587.05,217.71s.05,0,.07.07S587,217.78,587.05,217.71Z"/><path class="cls-7" d="M587.12,217.78s.07,0,.08.06S587.12,217.84,587.12,217.78Z"/><path class="cls-8" d="M602.19,205.87c.06.12.19.18.28.27a2.73,2.73,0,0,1,.81,1.46,2.86,2.86,0,0,1-.23,1.86,2.86,2.86,0,0,1-1.72,1.46,2.86,2.86,0,0,1-1.23.11,4,4,0,0,1-.75-.21l-.16,0-2-.68a.42.42,0,0,1-.21-.52c.2-.57.39-1.15.59-1.72a5.06,5.06,0,0,1,.46-1.13,2.75,2.75,0,0,1,1.3-1.13,3,3,0,0,1,1.24-.24,3.53,3.53,0,0,1,1.38.39l.12.07s0,0,.06,0h0l0,0Z"/><path class="cls-8" d="M588.42,215.68a6.67,6.67,0,0,1-.55-.52,2.91,2.91,0,0,1-.51-.89,3,3,0,0,1-.16-1,2.72,2.72,0,0,1,.55-1.67,2.75,2.75,0,0,1,1.62-1.08,2.8,2.8,0,0,1,1.32,0c.22.05.42.16.65.19l1.93.67a.39.39,0,0,1,.26.51c-.29.84-.53,1.7-.87,2.52a2.71,2.71,0,0,1-2,1.65,3,3,0,0,1-2.11-.33Z"/><path class="cls-7" d="M602.16,205.85s0,0-.06,0A.06.06,0,0,1,602.16,205.85Z"/><path class="cls-7" d="M602.19,205.87l0,0Z"/></g></svg>